<svg width="121" height="26" viewBox="0 0 121 26" fill="none" xmlns="http://www.w3.org/2000/svg">
<g filter="url(#filter0_d_4949_17704)">
<mask id="path-1-outside-1_4949_17704" maskUnits="userSpaceOnUse" x="4" y="0.333374" width="113" height="18" fill="black">
<rect fill="white" x="4" y="0.333374" width="113" height="18"/>
<path d="M12.7229 17C11.2637 17 9.94209 16.6806 8.75819 16.0417C7.58806 15.3889 6.66572 14.4931 5.99117 13.3542C5.33039 12.2153 5 10.9306 5 9.50004C5 8.06948 5.33727 6.78476 6.01182 5.64587C6.68637 4.50699 7.60871 3.6181 8.77884 2.97921C9.96274 2.32643 11.2843 2.00004 12.7435 2.00004C13.9274 2.00004 15.0081 2.20837 15.9855 2.62504C16.9629 3.04171 17.7889 3.64587 18.4634 4.43754L16.7289 6.08337C15.6826 4.94449 14.3955 4.37504 12.8674 4.37504C11.8763 4.37504 10.9883 4.59726 10.2037 5.04171C9.41898 5.47226 8.80638 6.07643 8.36586 6.85421C7.92533 7.63198 7.70507 8.51393 7.70507 9.50004C7.70507 10.4862 7.92533 11.3681 8.36586 12.1459C8.80638 12.9237 9.41898 13.5348 10.2037 13.9792C10.9883 14.4098 11.8763 14.625 12.8674 14.625C14.3955 14.625 15.6826 14.0487 16.7289 12.8959L18.4634 14.5625C17.7889 15.3542 16.956 15.9584 15.9648 16.375C14.9874 16.7917 13.9068 17 12.7229 17Z"/>
<path d="M20.7878 1.33337H23.369V16.7917H20.7878V1.33337Z"/>
<path d="M37.1228 11.2917C37.1228 11.4723 37.109 11.7292 37.0815 12.0625H28.4294C28.5808 12.882 28.9731 13.5348 29.6064 14.0209C30.2534 14.4931 31.0518 14.7292 32.0017 14.7292C33.2131 14.7292 34.2112 14.3264 34.9959 13.5209L36.3794 15.125C35.8838 15.7223 35.2574 16.1737 34.5003 16.4792C33.7431 16.7848 32.8896 16.9375 31.9398 16.9375C30.7283 16.9375 29.6614 16.6945 28.7391 16.2084C27.8168 15.7223 27.1009 15.0487 26.5916 14.1875C26.096 13.3125 25.8482 12.3264 25.8482 11.2292C25.8482 10.1459 26.0891 9.17365 26.5709 8.31254C27.0665 7.43754 27.7479 6.75699 28.6152 6.27087C29.4825 5.78476 30.4599 5.54171 31.5474 5.54171C32.6212 5.54171 33.5779 5.78476 34.4177 6.27087C35.2712 6.7431 35.932 7.41671 36.4 8.29171C36.8818 9.15282 37.1228 10.1528 37.1228 11.2917ZM31.5474 7.62504C30.7214 7.62504 30.0194 7.87504 29.4412 8.37504C28.8768 8.86115 28.5326 9.51393 28.4087 10.3334H34.6655C34.5553 9.52782 34.2181 8.87504 33.6537 8.37504C33.0892 7.87504 32.3872 7.62504 31.5474 7.62504Z"/>
<path d="M49.7252 5.66671L44.9965 16.7917H42.3327L37.604 5.66671H40.2884L43.7162 13.9167L47.2473 5.66671H49.7252Z"/>
<path d="M61.402 11.2917C61.402 11.4723 61.3882 11.7292 61.3607 12.0625H52.7086C52.86 12.882 53.2523 13.5348 53.8856 14.0209C54.5326 14.4931 55.331 14.7292 56.2809 14.7292C57.4923 14.7292 58.4904 14.3264 59.2751 13.5209L60.6586 15.125C60.163 15.7223 59.5366 16.1737 58.7795 16.4792C58.0223 16.7848 57.1688 16.9375 56.219 16.9375C55.0075 16.9375 53.9406 16.6945 53.0183 16.2084C52.096 15.7223 51.3801 15.0487 50.8708 14.1875C50.3752 13.3125 50.1274 12.3264 50.1274 11.2292C50.1274 10.1459 50.3683 9.17365 50.8501 8.31254C51.3457 7.43754 52.0271 6.75699 52.8944 6.27087C53.7617 5.78476 54.7391 5.54171 55.8266 5.54171C56.9004 5.54171 57.8571 5.78476 58.6969 6.27087C59.5504 6.7431 60.2112 7.41671 60.6792 8.29171C61.161 9.15282 61.402 10.1528 61.402 11.2917ZM55.8266 7.62504C55.0006 7.62504 54.2986 7.87504 53.7204 8.37504C53.156 8.86115 52.8118 9.51393 52.6879 10.3334H58.9447C58.8345 9.52782 58.4973 8.87504 57.9329 8.37504C57.3684 7.87504 56.6664 7.62504 55.8266 7.62504Z"/>
<path d="M66.3386 7.29171C67.082 6.12504 68.3898 5.54171 70.262 5.54171V8.02087C70.0418 7.97921 69.8421 7.95837 69.6632 7.95837C68.6582 7.95837 67.8736 8.25698 67.3092 8.85421C66.7447 9.43754 66.4625 10.2848 66.4625 11.3959V16.7917H63.8813V5.66671H66.3386V7.29171Z"/>
<path d="M72.4517 1.33337H75.0328V16.7917H72.4517V1.33337Z"/>
<path d="M82.6331 5.54171C84.2575 5.54171 85.4965 5.93754 86.35 6.72921C87.2173 7.50699 87.6509 8.68754 87.6509 10.2709V16.7917H85.2143V15.4375C84.8977 15.9237 84.4434 16.2987 83.8514 16.5625C83.2732 16.8125 82.5712 16.9375 81.7452 16.9375C80.9192 16.9375 80.1965 16.7987 79.577 16.5209C78.9575 16.2292 78.4757 15.8334 78.1315 15.3334C77.8012 14.8195 77.636 14.2431 77.636 13.6042C77.636 12.6042 78.0008 11.8056 78.7304 11.2084C79.4738 10.5973 80.637 10.2917 82.2201 10.2917H85.0698V10.125C85.0698 9.34726 84.8357 8.75004 84.3677 8.33337C83.9134 7.91671 83.232 7.70837 82.3234 7.70837C81.7039 7.70837 81.0913 7.8056 80.4856 8.00004C79.8936 8.19448 79.3912 8.46532 78.9782 8.81254L77.9663 6.91671C78.5445 6.47226 79.2397 6.13198 80.0519 5.89587C80.8641 5.65976 81.7245 5.54171 82.6331 5.54171ZM82.2821 15.0417C82.9291 15.0417 83.5004 14.8959 83.996 14.6042C84.5053 14.2987 84.8633 13.8681 85.0698 13.3125V12.0209H82.406C80.9192 12.0209 80.1758 12.5139 80.1758 13.5C80.1758 13.9723 80.3617 14.3473 80.7334 14.625C81.1051 14.9028 81.6213 15.0417 82.2821 15.0417Z"/>
<path d="M97.2203 5.54171C98.6107 5.54171 99.7258 5.95143 100.566 6.77087C101.405 7.59032 101.825 8.8056 101.825 10.4167V16.7917H99.244V10.75C99.244 9.77782 99.0168 9.04865 98.5625 8.56254C98.1082 8.06254 97.4612 7.81254 96.6215 7.81254C95.6716 7.81254 94.9214 8.10421 94.3707 8.68754C93.82 9.25699 93.5447 10.0834 93.5447 11.1667V16.7917H90.9635V5.66671H93.4208V7.10421C93.8476 6.59032 94.3845 6.20143 95.0315 5.93754C95.6785 5.67365 96.4081 5.54171 97.2203 5.54171Z"/>
<path d="M116 1.33337V16.7917H113.522V15.3542C113.095 15.882 112.565 16.2778 111.932 16.5417C111.313 16.8056 110.624 16.9375 109.867 16.9375C108.807 16.9375 107.85 16.7014 106.997 16.2292C106.157 15.757 105.496 15.0903 105.015 14.2292C104.533 13.3542 104.292 12.3542 104.292 11.2292C104.292 10.1042 104.533 9.11115 105.015 8.25004C105.496 7.38893 106.157 6.72226 106.997 6.25004C107.85 5.77782 108.807 5.54171 109.867 5.54171C110.597 5.54171 111.264 5.66671 111.87 5.91671C112.476 6.16671 112.992 6.54171 113.419 7.04171V1.33337H116ZM110.177 14.7084C110.796 14.7084 111.354 14.5695 111.849 14.2917C112.345 14 112.737 13.5903 113.026 13.0625C113.316 12.5348 113.46 11.9237 113.46 11.2292C113.46 10.5348 113.316 9.92365 113.026 9.39587C112.737 8.8681 112.345 8.46532 111.849 8.18754C111.354 7.89587 110.796 7.75004 110.177 7.75004C109.557 7.75004 109 7.89587 108.504 8.18754C108.009 8.46532 107.616 8.8681 107.327 9.39587C107.038 9.92365 106.894 10.5348 106.894 11.2292C106.894 11.9237 107.038 12.5348 107.327 13.0625C107.616 13.5903 108.009 14 108.504 14.2917C109 14.5695 109.557 14.7084 110.177 14.7084Z"/>
</mask>
<path d="M12.7229 17C11.2637 17 9.94209 16.6806 8.75819 16.0417C7.58806 15.3889 6.66572 14.4931 5.99117 13.3542C5.33039 12.2153 5 10.9306 5 9.50004C5 8.06948 5.33727 6.78476 6.01182 5.64587C6.68637 4.50699 7.60871 3.6181 8.77884 2.97921C9.96274 2.32643 11.2843 2.00004 12.7435 2.00004C13.9274 2.00004 15.0081 2.20837 15.9855 2.62504C16.9629 3.04171 17.7889 3.64587 18.4634 4.43754L16.7289 6.08337C15.6826 4.94449 14.3955 4.37504 12.8674 4.37504C11.8763 4.37504 10.9883 4.59726 10.2037 5.04171C9.41898 5.47226 8.80638 6.07643 8.36586 6.85421C7.92533 7.63198 7.70507 8.51393 7.70507 9.50004C7.70507 10.4862 7.92533 11.3681 8.36586 12.1459C8.80638 12.9237 9.41898 13.5348 10.2037 13.9792C10.9883 14.4098 11.8763 14.625 12.8674 14.625C14.3955 14.625 15.6826 14.0487 16.7289 12.8959L18.4634 14.5625C17.7889 15.3542 16.956 15.9584 15.9648 16.375C14.9874 16.7917 13.9068 17 12.7229 17Z" fill="#363636"/>
<path d="M20.7878 1.33337H23.369V16.7917H20.7878V1.33337Z" fill="#363636"/>
<path d="M37.1228 11.2917C37.1228 11.4723 37.109 11.7292 37.0815 12.0625H28.4294C28.5808 12.882 28.9731 13.5348 29.6064 14.0209C30.2534 14.4931 31.0518 14.7292 32.0017 14.7292C33.2131 14.7292 34.2112 14.3264 34.9959 13.5209L36.3794 15.125C35.8838 15.7223 35.2574 16.1737 34.5003 16.4792C33.7431 16.7848 32.8896 16.9375 31.9398 16.9375C30.7283 16.9375 29.6614 16.6945 28.7391 16.2084C27.8168 15.7223 27.1009 15.0487 26.5916 14.1875C26.096 13.3125 25.8482 12.3264 25.8482 11.2292C25.8482 10.1459 26.0891 9.17365 26.5709 8.31254C27.0665 7.43754 27.7479 6.75699 28.6152 6.27087C29.4825 5.78476 30.4599 5.54171 31.5474 5.54171C32.6212 5.54171 33.5779 5.78476 34.4177 6.27087C35.2712 6.7431 35.932 7.41671 36.4 8.29171C36.8818 9.15282 37.1228 10.1528 37.1228 11.2917ZM31.5474 7.62504C30.7214 7.62504 30.0194 7.87504 29.4412 8.37504C28.8768 8.86115 28.5326 9.51393 28.4087 10.3334H34.6655C34.5553 9.52782 34.2181 8.87504 33.6537 8.37504C33.0892 7.87504 32.3872 7.62504 31.5474 7.62504Z" fill="#363636"/>
<path d="M49.7252 5.66671L44.9965 16.7917H42.3327L37.604 5.66671H40.2884L43.7162 13.9167L47.2473 5.66671H49.7252Z" fill="#363636"/>
<path d="M61.402 11.2917C61.402 11.4723 61.3882 11.7292 61.3607 12.0625H52.7086C52.86 12.882 53.2523 13.5348 53.8856 14.0209C54.5326 14.4931 55.331 14.7292 56.2809 14.7292C57.4923 14.7292 58.4904 14.3264 59.2751 13.5209L60.6586 15.125C60.163 15.7223 59.5366 16.1737 58.7795 16.4792C58.0223 16.7848 57.1688 16.9375 56.219 16.9375C55.0075 16.9375 53.9406 16.6945 53.0183 16.2084C52.096 15.7223 51.3801 15.0487 50.8708 14.1875C50.3752 13.3125 50.1274 12.3264 50.1274 11.2292C50.1274 10.1459 50.3683 9.17365 50.8501 8.31254C51.3457 7.43754 52.0271 6.75699 52.8944 6.27087C53.7617 5.78476 54.7391 5.54171 55.8266 5.54171C56.9004 5.54171 57.8571 5.78476 58.6969 6.27087C59.5504 6.7431 60.2112 7.41671 60.6792 8.29171C61.161 9.15282 61.402 10.1528 61.402 11.2917ZM55.8266 7.62504C55.0006 7.62504 54.2986 7.87504 53.7204 8.37504C53.156 8.86115 52.8118 9.51393 52.6879 10.3334H58.9447C58.8345 9.52782 58.4973 8.87504 57.9329 8.37504C57.3684 7.87504 56.6664 7.62504 55.8266 7.62504Z" fill="#363636"/>
<path d="M66.3386 7.29171C67.082 6.12504 68.3898 5.54171 70.262 5.54171V8.02087C70.0418 7.97921 69.8421 7.95837 69.6632 7.95837C68.6582 7.95837 67.8736 8.25698 67.3092 8.85421C66.7447 9.43754 66.4625 10.2848 66.4625 11.3959V16.7917H63.8813V5.66671H66.3386V7.29171Z" fill="#363636"/>
<path d="M72.4517 1.33337H75.0328V16.7917H72.4517V1.33337Z" fill="#363636"/>
<path d="M82.6331 5.54171C84.2575 5.54171 85.4965 5.93754 86.35 6.72921C87.2173 7.50699 87.6509 8.68754 87.6509 10.2709V16.7917H85.2143V15.4375C84.8977 15.9237 84.4434 16.2987 83.8514 16.5625C83.2732 16.8125 82.5712 16.9375 81.7452 16.9375C80.9192 16.9375 80.1965 16.7987 79.577 16.5209C78.9575 16.2292 78.4757 15.8334 78.1315 15.3334C77.8012 14.8195 77.636 14.2431 77.636 13.6042C77.636 12.6042 78.0008 11.8056 78.7304 11.2084C79.4738 10.5973 80.637 10.2917 82.2201 10.2917H85.0698V10.125C85.0698 9.34726 84.8357 8.75004 84.3677 8.33337C83.9134 7.91671 83.232 7.70837 82.3234 7.70837C81.7039 7.70837 81.0913 7.8056 80.4856 8.00004C79.8936 8.19448 79.3912 8.46532 78.9782 8.81254L77.9663 6.91671C78.5445 6.47226 79.2397 6.13198 80.0519 5.89587C80.8641 5.65976 81.7245 5.54171 82.6331 5.54171ZM82.2821 15.0417C82.9291 15.0417 83.5004 14.8959 83.996 14.6042C84.5053 14.2987 84.8633 13.8681 85.0698 13.3125V12.0209H82.406C80.9192 12.0209 80.1758 12.5139 80.1758 13.5C80.1758 13.9723 80.3617 14.3473 80.7334 14.625C81.1051 14.9028 81.6213 15.0417 82.2821 15.0417Z" fill="#363636"/>
<path d="M97.2203 5.54171C98.6107 5.54171 99.7258 5.95143 100.566 6.77087C101.405 7.59032 101.825 8.8056 101.825 10.4167V16.7917H99.244V10.75C99.244 9.77782 99.0168 9.04865 98.5625 8.56254C98.1082 8.06254 97.4612 7.81254 96.6215 7.81254C95.6716 7.81254 94.9214 8.10421 94.3707 8.68754C93.82 9.25699 93.5447 10.0834 93.5447 11.1667V16.7917H90.9635V5.66671H93.4208V7.10421C93.8476 6.59032 94.3845 6.20143 95.0315 5.93754C95.6785 5.67365 96.4081 5.54171 97.2203 5.54171Z" fill="#363636"/>
<path d="M116 1.33337V16.7917H113.522V15.3542C113.095 15.882 112.565 16.2778 111.932 16.5417C111.313 16.8056 110.624 16.9375 109.867 16.9375C108.807 16.9375 107.85 16.7014 106.997 16.2292C106.157 15.757 105.496 15.0903 105.015 14.2292C104.533 13.3542 104.292 12.3542 104.292 11.2292C104.292 10.1042 104.533 9.11115 105.015 8.25004C105.496 7.38893 106.157 6.72226 106.997 6.25004C107.85 5.77782 108.807 5.54171 109.867 5.54171C110.597 5.54171 111.264 5.66671 111.87 5.91671C112.476 6.16671 112.992 6.54171 113.419 7.04171V1.33337H116ZM110.177 14.7084C110.796 14.7084 111.354 14.5695 111.849 14.2917C112.345 14 112.737 13.5903 113.026 13.0625C113.316 12.5348 113.46 11.9237 113.46 11.2292C113.46 10.5348 113.316 9.92365 113.026 9.39587C112.737 8.8681 112.345 8.46532 111.849 8.18754C111.354 7.89587 110.796 7.75004 110.177 7.75004C109.557 7.75004 109 7.89587 108.504 8.18754C108.009 8.46532 107.616 8.8681 107.327 9.39587C107.038 9.92365 106.894 10.5348 106.894 11.2292C106.894 11.9237 107.038 12.5348 107.327 13.0625C107.616 13.5903 108.009 14 108.504 14.2917C109 14.5695 109.557 14.7084 110.177 14.7084Z" fill="#363636"/>
<path d="M12.7229 17C11.2637 17 9.94209 16.6806 8.75819 16.0417C7.58806 15.3889 6.66572 14.4931 5.99117 13.3542C5.33039 12.2153 5 10.9306 5 9.50004C5 8.06948 5.33727 6.78476 6.01182 5.64587C6.68637 4.50699 7.60871 3.6181 8.77884 2.97921C9.96274 2.32643 11.2843 2.00004 12.7435 2.00004C13.9274 2.00004 15.0081 2.20837 15.9855 2.62504C16.9629 3.04171 17.7889 3.64587 18.4634 4.43754L16.7289 6.08337C15.6826 4.94449 14.3955 4.37504 12.8674 4.37504C11.8763 4.37504 10.9883 4.59726 10.2037 5.04171C9.41898 5.47226 8.80638 6.07643 8.36586 6.85421C7.92533 7.63198 7.70507 8.51393 7.70507 9.50004C7.70507 10.4862 7.92533 11.3681 8.36586 12.1459C8.80638 12.9237 9.41898 13.5348 10.2037 13.9792C10.9883 14.4098 11.8763 14.625 12.8674 14.625C14.3955 14.625 15.6826 14.0487 16.7289 12.8959L18.4634 14.5625C17.7889 15.3542 16.956 15.9584 15.9648 16.375C14.9874 16.7917 13.9068 17 12.7229 17Z" stroke="black" stroke-width="2" mask="url(#path-1-outside-1_4949_17704)"/>
<path d="M20.7878 1.33337H23.369V16.7917H20.7878V1.33337Z" stroke="black" stroke-width="2" mask="url(#path-1-outside-1_4949_17704)"/>
<path d="M37.1228 11.2917C37.1228 11.4723 37.109 11.7292 37.0815 12.0625H28.4294C28.5808 12.882 28.9731 13.5348 29.6064 14.0209C30.2534 14.4931 31.0518 14.7292 32.0017 14.7292C33.2131 14.7292 34.2112 14.3264 34.9959 13.5209L36.3794 15.125C35.8838 15.7223 35.2574 16.1737 34.5003 16.4792C33.7431 16.7848 32.8896 16.9375 31.9398 16.9375C30.7283 16.9375 29.6614 16.6945 28.7391 16.2084C27.8168 15.7223 27.1009 15.0487 26.5916 14.1875C26.096 13.3125 25.8482 12.3264 25.8482 11.2292C25.8482 10.1459 26.0891 9.17365 26.5709 8.31254C27.0665 7.43754 27.7479 6.75699 28.6152 6.27087C29.4825 5.78476 30.4599 5.54171 31.5474 5.54171C32.6212 5.54171 33.5779 5.78476 34.4177 6.27087C35.2712 6.7431 35.932 7.41671 36.4 8.29171C36.8818 9.15282 37.1228 10.1528 37.1228 11.2917ZM31.5474 7.62504C30.7214 7.62504 30.0194 7.87504 29.4412 8.37504C28.8768 8.86115 28.5326 9.51393 28.4087 10.3334H34.6655C34.5553 9.52782 34.2181 8.87504 33.6537 8.37504C33.0892 7.87504 32.3872 7.62504 31.5474 7.62504Z" stroke="black" stroke-width="2" mask="url(#path-1-outside-1_4949_17704)"/>
<path d="M49.7252 5.66671L44.9965 16.7917H42.3327L37.604 5.66671H40.2884L43.7162 13.9167L47.2473 5.66671H49.7252Z" stroke="black" stroke-width="2" mask="url(#path-1-outside-1_4949_17704)"/>
<path d="M61.402 11.2917C61.402 11.4723 61.3882 11.7292 61.3607 12.0625H52.7086C52.86 12.882 53.2523 13.5348 53.8856 14.0209C54.5326 14.4931 55.331 14.7292 56.2809 14.7292C57.4923 14.7292 58.4904 14.3264 59.2751 13.5209L60.6586 15.125C60.163 15.7223 59.5366 16.1737 58.7795 16.4792C58.0223 16.7848 57.1688 16.9375 56.219 16.9375C55.0075 16.9375 53.9406 16.6945 53.0183 16.2084C52.096 15.7223 51.3801 15.0487 50.8708 14.1875C50.3752 13.3125 50.1274 12.3264 50.1274 11.2292C50.1274 10.1459 50.3683 9.17365 50.8501 8.31254C51.3457 7.43754 52.0271 6.75699 52.8944 6.27087C53.7617 5.78476 54.7391 5.54171 55.8266 5.54171C56.9004 5.54171 57.8571 5.78476 58.6969 6.27087C59.5504 6.7431 60.2112 7.41671 60.6792 8.29171C61.161 9.15282 61.402 10.1528 61.402 11.2917ZM55.8266 7.62504C55.0006 7.62504 54.2986 7.87504 53.7204 8.37504C53.156 8.86115 52.8118 9.51393 52.6879 10.3334H58.9447C58.8345 9.52782 58.4973 8.87504 57.9329 8.37504C57.3684 7.87504 56.6664 7.62504 55.8266 7.62504Z" stroke="black" stroke-width="2" mask="url(#path-1-outside-1_4949_17704)"/>
<path d="M66.3386 7.29171C67.082 6.12504 68.3898 5.54171 70.262 5.54171V8.02087C70.0418 7.97921 69.8421 7.95837 69.6632 7.95837C68.6582 7.95837 67.8736 8.25698 67.3092 8.85421C66.7447 9.43754 66.4625 10.2848 66.4625 11.3959V16.7917H63.8813V5.66671H66.3386V7.29171Z" stroke="black" stroke-width="2" mask="url(#path-1-outside-1_4949_17704)"/>
<path d="M72.4517 1.33337H75.0328V16.7917H72.4517V1.33337Z" stroke="black" stroke-width="2" mask="url(#path-1-outside-1_4949_17704)"/>
<path d="M82.6331 5.54171C84.2575 5.54171 85.4965 5.93754 86.35 6.72921C87.2173 7.50699 87.6509 8.68754 87.6509 10.2709V16.7917H85.2143V15.4375C84.8977 15.9237 84.4434 16.2987 83.8514 16.5625C83.2732 16.8125 82.5712 16.9375 81.7452 16.9375C80.9192 16.9375 80.1965 16.7987 79.577 16.5209C78.9575 16.2292 78.4757 15.8334 78.1315 15.3334C77.8012 14.8195 77.636 14.2431 77.636 13.6042C77.636 12.6042 78.0008 11.8056 78.7304 11.2084C79.4738 10.5973 80.637 10.2917 82.2201 10.2917H85.0698V10.125C85.0698 9.34726 84.8357 8.75004 84.3677 8.33337C83.9134 7.91671 83.232 7.70837 82.3234 7.70837C81.7039 7.70837 81.0913 7.8056 80.4856 8.00004C79.8936 8.19448 79.3912 8.46532 78.9782 8.81254L77.9663 6.91671C78.5445 6.47226 79.2397 6.13198 80.0519 5.89587C80.8641 5.65976 81.7245 5.54171 82.6331 5.54171ZM82.2821 15.0417C82.9291 15.0417 83.5004 14.8959 83.996 14.6042C84.5053 14.2987 84.8633 13.8681 85.0698 13.3125V12.0209H82.406C80.9192 12.0209 80.1758 12.5139 80.1758 13.5C80.1758 13.9723 80.3617 14.3473 80.7334 14.625C81.1051 14.9028 81.6213 15.0417 82.2821 15.0417Z" stroke="black" stroke-width="2" mask="url(#path-1-outside-1_4949_17704)"/>
<path d="M97.2203 5.54171C98.6107 5.54171 99.7258 5.95143 100.566 6.77087C101.405 7.59032 101.825 8.8056 101.825 10.4167V16.7917H99.244V10.75C99.244 9.77782 99.0168 9.04865 98.5625 8.56254C98.1082 8.06254 97.4612 7.81254 96.6215 7.81254C95.6716 7.81254 94.9214 8.10421 94.3707 8.68754C93.82 9.25699 93.5447 10.0834 93.5447 11.1667V16.7917H90.9635V5.66671H93.4208V7.10421C93.8476 6.59032 94.3845 6.20143 95.0315 5.93754C95.6785 5.67365 96.4081 5.54171 97.2203 5.54171Z" stroke="black" stroke-width="2" mask="url(#path-1-outside-1_4949_17704)"/>
<path d="M116 1.33337V16.7917H113.522V15.3542C113.095 15.882 112.565 16.2778 111.932 16.5417C111.313 16.8056 110.624 16.9375 109.867 16.9375C108.807 16.9375 107.85 16.7014 106.997 16.2292C106.157 15.757 105.496 15.0903 105.015 14.2292C104.533 13.3542 104.292 12.3542 104.292 11.2292C104.292 10.1042 104.533 9.11115 105.015 8.25004C105.496 7.38893 106.157 6.72226 106.997 6.25004C107.85 5.77782 108.807 5.54171 109.867 5.54171C110.597 5.54171 111.264 5.66671 111.87 5.91671C112.476 6.16671 112.992 6.54171 113.419 7.04171V1.33337H116ZM110.177 14.7084C110.796 14.7084 111.354 14.5695 111.849 14.2917C112.345 14 112.737 13.5903 113.026 13.0625C113.316 12.5348 113.46 11.9237 113.46 11.2292C113.46 10.5348 113.316 9.92365 113.026 9.39587C112.737 8.8681 112.345 8.46532 111.849 8.18754C111.354 7.89587 110.796 7.75004 110.177 7.75004C109.557 7.75004 109 7.89587 108.504 8.18754C108.009 8.46532 107.616 8.8681 107.327 9.39587C107.038 9.92365 106.894 10.5348 106.894 11.2292C106.894 11.9237 107.038 12.5348 107.327 13.0625C107.616 13.5903 108.009 14 108.504 14.2917C109 14.5695 109.557 14.7084 110.177 14.7084Z" stroke="black" stroke-width="2" mask="url(#path-1-outside-1_4949_17704)"/>
</g>
<defs>
<filter id="filter0_d_4949_17704" x="0" y="0.333374" width="121" height="25.6666" filterUnits="userSpaceOnUse" color-interpolation-filters="sRGB">
<feFlood flood-opacity="0" result="BackgroundImageFix"/>
<feColorMatrix in="SourceAlpha" type="matrix" values="0 0 0 0 0 0 0 0 0 0 0 0 0 0 0 0 0 0 127 0" result="hardAlpha"/>
<feOffset dy="4"/>
<feGaussianBlur stdDeviation="2"/>
<feComposite in2="hardAlpha" operator="out"/>
<feColorMatrix type="matrix" values="0 0 0 0 0 0 0 0 0 0 0 0 0 0 0 0 0 0 0.25 0"/>
<feBlend mode="normal" in2="BackgroundImageFix" result="effect1_dropShadow_4949_17704"/>
<feBlend mode="normal" in="SourceGraphic" in2="effect1_dropShadow_4949_17704" result="shape"/>
</filter>
</defs>
</svg>
